<svg xmlns="http://www.w3.org/2000/svg" height="800" width="1200" viewBox="-39.652305 -20.3347 343.65331 122.0082"><path d="M264.3487 81.3388H0V0h264.3487z" fill="#002147"/><path d="M103.5441 50.8576c0-6.855-3.3225-11.6375-8.9287-11.6375-6.095 0-8.9375 5.7438-8.9375 11.6375 0 6.8513 3.3262 11.63 8.9375 11.63 6.0925 0 8.9287-5.7425 8.9287-11.63m4.1588-.1362c0 7.5387-5.8175 13.0125-13.0875 13.0125-7.4113 0-13.0913-5.535-13.0913-12.7425 0-7.5438 5.8175-13.0175 13.0913-13.0175 7.41 0 13.0875 5.5425 13.0875 12.7475m75.7622.1362c0-6.855-3.3262-11.6375-8.9325-11.6375-6.095 0-8.9337 5.7438-8.9337 11.6375 0 6.8513 3.3237 11.63 8.9337 11.63 6.0913 0 8.9325-5.7425 8.9325-11.63m4.155-.1362c0 7.5387-5.8187 13.0125-13.0875 13.0125-7.4125 0-13.0912-5.535-13.0912-12.7425 0-7.5438 5.8187-13.0175 13.0912-13.0175 7.4088 0 13.0875 5.5425 13.0875 12.7475m15.8594 4.2841c-1.4562-2.0775-2.0112-2.835-3.81-2.835h-1.94v8.4488c0 .6937.2775 1.0337 1.0413 1.175l2.8375.6225v.905h-11.15v-.905l2.5637-.6225c.76-.2038 1.0375-.4813 1.0375-1.175V41.0905c0-.695-.2775-.97-1.0375-1.1762l-2.5637-.6238v-.9037h10.8725c2.2887 0 3.88.21 5.195.6912 2.7012 1.0425 4.2237 3.6088 4.2237 6.0263 0 3.0512-2.285 5.6175-6.0937 6.5075v.1387c.7625.3525 1.1775.835 3.8787 4.3725l3.3925 4.4963c.485.6937 1.1088 1.105 1.8713 1.2475l2.4925.55v.905h-5.955c-.6925 0-1.0388-.2113-1.6625-1.045zm-5.75-4.015h3.1175c4.71 0 5.75-2.9712 5.75-5.815 0-2.1475-.9712-4.1562-3.1875-5.1237-1.1762-.4863-2.2862-.4863-3.8087-.4863h-1.8713zm-43.074-4.0844h1.04v8.3125h-1.04l-.6237-2.4912c-.2088-.905-.7613-1.2488-1.5925-1.2488h-6.0263V60.62c0 .6925.2775 1.0337 1.04 1.175l2.8388.6225v.905H139.143v-.905l2.5625-.6225c.7613-.2038 1.04-.4825 1.04-1.175V41.09c0-.6938-.2787-.9688-1.04-1.175l-2.5625-.625v-.9025h18.8363v6.2387h-1.0388l-1.1762-3.745c-.2775-.9662-.6938-1.315-1.525-1.315h-7.8263v10.7325h6.0263c.8312 0 1.315-.3412 1.5925-1.2462zm70.9151-7.3403v21.465c0 .905.2063 1.1162 1.1088 1.1162h3.045c2.91 0 5.0562-.4225 6.58-1.5275 2.5625-1.8675 3.74-5.2612 3.74-9.5575 0-4.2237-1.1775-8.375-4.6388-10.385-1.4537-.8337-3.325-1.1112-6.235-1.1112zM218.297 63.322v-.905l2.5637-.6225c.7625-.2038 1.0388-.4825 1.0388-1.175v-19.53c0-.6938-.2763-.9688-1.0388-1.175l-2.5637-.6237v-.9038h11.7062c3.185 0 5.47.4163 7.3413 1.2475 4.7087 2.1475 6.8562 6.7863 6.8562 11.3563 0 4.4387-1.6625 8.5887-5.8862 10.8037-1.9388 1.045-4.6413 1.5275-8.1713 1.5275zm-100.8286-.9049v.905h-8.795v-.905l2.2125-.5512c.835-.2125 1.3862-.4825 1.94-1.105l7.6187-9.5575-7.6187-10.1138c-.4838-.6937-1.105-1.0375-1.87-1.2462l-2.0775-.5525v-.9038h10.9425v.9038l-2.3525.4825c-.8325.1412-.625.485-.2113 1.0412l5.61 8.0325h.1388l5.7487-8.0325c.4163-.5562.5563-.7625-.2075-.9712l-2.2162-.5525v-.9038h8.795v.9038l-2.2163.5525c-.8287.2087-1.3837.4825-1.94 1.1062l-7.2012 9.0775 8.0325 10.5925c.4875.6925 1.1087 1.0338 1.87 1.2463l2.08.5512v.905h-10.9425v-.905l2.3537-.4812c.8325-.1413.6925-.4113.2775-.9763l-6.095-8.5862h-.1375l-6.1637 8.5275c-.4163.5525-.555.7525.2075.965zM91.2342 26.6539c-.6887.6887-1.7212 1.1475-3.1637 1.1475-1.2563 0-2.42-.395-3.2088-1.1838-1.0762-1.075-1.0262-2.4475-1.0262-3.9137v-6.935h1.4137v7.45c0 .9425-.0287 1.8612.7 2.5887.505.505 1.2813.7775 2.1763.7775.8737 0 1.5762-.3012 2.0125-.74.81-.8087.7587-1.6925.7587-3.8262v-6.25h1.3938v5.8825c0 2.2362.09 3.8562-1.0563 5.0025m12.5504.9258l-5.69-9.6812.0363 9.6812h-1.3V15.7685h1.4487l5.7113 9.735-.0363-9.735h1.3013v11.8112zm6.3954-11.8109h1.4213v11.81H110.18zm10.2565 11.8098h-1.6275l-4.0713-11.81h1.4813l3.4437 10.4263 3.5475-10.4263h1.375zm7.3635 0v-11.81h6.4213v1.1775h-5.0288v3.8975h4.7213v1.1488h-4.7213v4.3737h5.1687v1.2125zm16.8304 0l-1.3563-3.0612c-.84-1.8825-1.2237-2.0763-2.9362-2.0763h-.8225v5.1375h-1.3938v-11.81h2.5488c1.575 0 2.7637-.01 3.6925.9188.5912.5912.9212 1.3762.9212 2.3612 0 .8213-.2387 1.5038-.7325 2.03-.425.4525-1.1287.85-1.8937.9313.415.0237.7587.2487.9812.4725.3225.32.5563.8075.9025 1.58l1.5688 3.5162zm-1.29-10.0325c-.6763-.6775-1.555-.6462-2.5175-.6462h-1.3075v4.4112h.4687c1.1925 0 2.4763.0613 3.2863-.7487.3912-.3913.61-.94.61-1.5388 0-.665-.2613-1.1987-.54-1.4775m16.5646-1.7773h1.4213v11.81h-1.4213zm9.5293 1.1774v10.6325h-1.4188V16.9462h-3.5125v-1.1775h8.4313v1.1775zm10.2977 5.9648v4.6675h-1.4025V22.911l-3.7488-7.1425h1.6238l2.91 5.5387 2.8275-5.5387h1.5387zm17.0015 4.8909c-3.0562 0-5.2912-2.525-5.2912-6.075 0-3.6475 2.2112-6.1813 5.4012-6.1813 3.09 0 5.2738 2.5075 5.2738 6.0725 0 3.6563-2.1875 6.1838-5.3838 6.1838m-.005-11.05c-2.3137 0-3.8162 1.955-3.8162 4.9 0 2.935 1.6737 4.9325 3.8925 4.9325 2.4687 0 3.8425-2.1 3.8425-5.025 0-2.8825-1.6225-4.8075-3.9188-4.8075m10.6821.1943v3.8975h4.5663v1.1488h-4.5663v5.5862h-1.41v-11.81h6.2725v1.1775zM148.9724 18.65c0-1.815 1.46-3.1063 3.5937-3.1063 2.16 0 3.1963 1.115 3.3013 1.23l-.6925.8388c-.265-.2038-1.21-.8988-2.5163-.8988-1.5062 0-2.34.7875-2.34 1.8563 0 .5175.2113.89.5525 1.1962.405.3625.9963.6313 1.6325.925.7925.3638 1.8775.7725 2.605 1.5275.5025.5213.8825 1.2.8825 2.1313 0 1.9637-1.3625 3.46-3.8137 3.46-2.09 0-3.4075-1.1513-3.5313-1.2663l.65-.9575c.335.2488 1.6475 1.025 2.8463 1.025 1.7775 0 2.4425-.9737 2.4425-2.1462 0-.5463-.2475-.985-.6163-1.3375-.5512-.53-1.385-.8863-2.1837-1.2513-.7938-.3625-1.5575-.7425-2.0988-1.3112-.3575-.3738-.7137-.9863-.7137-1.915M40.4286 31.7821c0-1.0437-.3537-1.8875-1.1187-2.3362-.4788-.2813-1.1275-.3738-1.9275-.3738h-5.8225V40.826h6.3362c1.4613 0 2.32.3287 2.3938 1.6387h.1387zm.8131 0c0-1.0437.3538-1.8875 1.1188-2.3362.48-.2813 1.1287-.3738 1.93-.3738h5.8612V40.826h-6.3762c-1.46 0-2.3188.3287-2.3938 1.6387h-.14z" fill="#fff"/><path d="M51.3777 29.9409V42.367h-9.01l-.1025.2538c-.1562.3875-.4375.7462-1.42.7462-.9825 0-1.2625-.3587-1.42-.7462l-.1025-.2538h-8.9862V29.941h-.8125v.3787l-.78-.24c-.09-.3062-.37-.5325-.7063-.5325-.4075 0-.74.3325-.74.74 0 .41.3325.7413.74.7413.1788 0 .34-.0663.4675-.1713l1.0188.3125v.9988l-.765-.1375a.7398.7398 0 00-.6813-.4488c-.4075 0-.74.3313-.74.74 0 .4088.3325.74.74.74.2113 0 .4013-.09.5363-.2312l.91.1637v1.0175l-.8-.035c-.1288-.215-.3625-.3612-.6325-.3612-.4075 0-.74.3312-.74.74 0 .4087.3325.7412.74.7412.2475 0 .4637-.1225.5987-.3075l.8338.0363v1.1062l-.8175.03a.7341.7341 0 00-.6013-.3112c-.4075 0-.74.3312-.74.74 0 .4087.3325.74.74.74.2675 0 .5-.1438.63-.3563l.7888-.0287v1.02l-.8938.1537a.738.738 0 00-.5387-.235c-.4075 0-.74.3313-.74.74 0 .4088.3325.74.74.74a.739.739 0 00.6787-.445l.7538-.1287v1.0012l-.9775.2975c-.1275-.105-.29-.1712-.4688-.1712a.74.74 0 100 1.48c.3363 0 .6175-.225.7075-.5313l.7388-.2262v.9687l-1.08.4663a.7305.7305 0 00-.4063-.1225c-.4075 0-.74.3312-.74.74 0 .4087.3325.74.74.74.3638 0 .6663-.2638.7275-.6113l.7588-.3275v.885h9.2975c.3787.6588 1.0325 1 2.0237 1 .9913 0 1.6463-.3412 2.0225-1h9.3225V29.941zM34.7279 25.797c-1.88 0-3.4025.2925-3.4025.6525 0 .3612 1.5225.6525 3.4025.6525 1.8787 0 3.4025-.2913 3.4025-.6525 0-.36-1.5238-.6525-3.4025-.6525m4.6846-4.0764l-1.9637 1.38-.0163.14.4663.21c.0925.0463.0925.12.0462.165l-1.2337 1.0413-.1175-.01-.8738-1.2875c-.0612-.0838-.0387-.1675.0675-.185l.5863-.0963v-.1475l-1.5213-2.1487h-.25l-1.5212 2.1487v.1475l.5875.0963c.105.0175.1262.1012.0662.185l-.875 1.2875-.115.01-1.1537-1.0413c-.0463-.045-.0463-.1187.0462-.165l.4675-.21-.0175-.14-2.0462-1.38-.165.065 1.2 3.67c.6112-.2737 2.0112-.4662 3.65-.4737 1.6412.0075 3.0412.2 3.6512.4737l1.2013-3.67zm1.4179 28.6893c-1.88 0-3.4025.2925-3.4025.6525 0 .3612 1.5225.6525 3.4025.6525 1.8787 0 3.4025-.2913 3.4025-.6525 0-.36-1.5238-.6525-3.4025-.6525m4.6847-4.0767l-1.9637 1.3813-.0163.14.4663.2087c.0925.0463.0925.12.0462.165l-1.2337 1.0425-.1175-.0112-.8738-1.2875c-.06-.0838-.0387-.1675.0675-.185l.5863-.095v-.1488l-1.5213-2.1487h-.25l-1.5212 2.1487v.1488l.5875.095c.105.0175.1262.1012.0662.185l-.875 1.2875-.1162.0112-1.1513-1.0425c-.0475-.045-.0475-.1187.045-.165l.4675-.2087-.0175-.14-2.0462-1.3813-.1663.065 1.2025 3.6713c.61-.275 2.01-.4675 3.65-.475 1.64.0075 3.0413.2 3.65.475l1.2013-3.6713zm1.4044-20.5362c-1.8813 0-3.4038.2925-3.4038.6525 0 .3612 1.5225.6525 3.4038.6525 1.8775 0 3.4012-.2913 3.4012-.6525 0-.36-1.5237-.6525-3.4012-.6525m4.6836-4.0764l-1.9637 1.38-.0175.14.4675.21c.0912.0463.0925.12.045.165l-1.2338 1.0413-.1162-.01-.8738-1.2875c-.0612-.0838-.0387-.1675.0663-.185l.5862-.0963v-.1475L47.042 20.782h-.2488l-1.5212 2.1487v.1475l.5862.0963c.1063.0175.1275.1012.0675.185l-.8737 1.2875-.1175.01-1.1525-1.055c-.0463-.0438-.0463-.1188.0462-.165l.4675-.1963-.0175-.14-2.0462-1.38-.1663.065 1.2013 3.67c.61-.2737 2.01-.4662 3.6512-.4737 1.64.0075 3.04.2 3.6488.4737l1.2025-3.67z" fill="#fff"/><path d="M32.9366 32.2089c0 .23.0575.275.1813.275.2237 0 .4487-.2463.4487-.705 0-.5575-.2825-.7125-.5025-.7125-.06 0-.0937.0075-.1112.0187-.0138.0038-.0163.0638-.0163.1288zm.1275-1.2725c.3188 0 .5838.0625.7563.2312.1212.1163.2225.3075.2225.5313 0 .645-.4888.9225-1.0888.9225h-.6675V32.52c.1888-.0162.21-.0337.21-.3137v-.855c0-.28-.0212-.2988-.19-.3138v-.1012zm1.6862.7774c0 .47.1762.8112.43.8112.2237 0 .345-.215.345-.6837 0-.5213-.1863-.8088-.41-.8088-.1988 0-.365.2288-.365.6813m1.2575.0437c0 .555-.3788.9025-.8763.9025-.5225 0-.8625-.3812-.8625-.8575 0-.42.28-.905.8988-.905.4737 0 .84.3475.84.86m2.2878-.8211v.1012c-.1975.0188-.2075.0288-.2.3013l.0263.8675c.0075.2875.0137.295.2.3137v.1013h-.8113V32.52c.1938-.0187.2013-.0262.1988-.3137l-.0063-.9125h-.0112l-.5 1.2987h-.14l-.475-1.2075h-.005l-.0175.575c-.0075.2225-.005.3475.005.4275.01.0963.0675.12.235.1325v.1013h-.6388V32.52c.1238-.0112.1725-.0362.1888-.1325.0137-.08.0287-.2175.0412-.4537l.0275-.5225c.02-.3263-.0012-.355-.2062-.3738v-.1012h.6087l.4538 1.0262.3962-1.0262zm.8418 1.27c0 .28.02.2975.1987.3137v.1013h-.8387V32.52c.1787-.0162.2-.0337.2-.3137v-.855c0-.28-.0213-.2988-.2-.3138v-.1012h.8387v.1012c-.1787.015-.1987.0338-.1987.3138zm-4.173 3.542h-.2225l-.9588-1.2238h-.0062v.4775c0 .2713.0112.4138.0212.495.0125.0913.0825.1238.2538.1325v.1h-.645v-.1c.1137-.0062.1812-.0412.195-.1325.01-.0812.02-.2237.02-.495v-.4775c0-.1912-.005-.225-.0575-.2975-.0375-.055-.1025-.0725-.1963-.08v-.1012h.5725l.8625 1.075h.0063v-.3463c0-.2725-.0113-.415-.0213-.495-.0125-.0912-.0837-.125-.2537-.1325v-.1012h.66v.1012c-.1288.005-.1963.0413-.21.1325-.01.08-.02.2225-.02.495zm1.0496 0a630.4669 630.4669 0 01-.5162-1.35c-.085-.2225-.1363-.2363-.2613-.2513v-.1012h.8363v.1012l-.0875.01c-.0963.01-.0963.0338-.0675.125.0462.145.2512.655.3475.9088.08-.22.2462-.715.2875-.8363.0537-.1587.0387-.1875-.0775-.2l-.0788-.0075v-.1012h.6288v.1012c-.1488.0175-.185.0313-.2863.2675-.0162.035-.3325.805-.5262 1.3338zm1.1685-.552c.0538.15.2063.4375.4613.4375.135 0 .2387-.0875.2387-.2563 0-.1525-.1012-.2387-.26-.3112l-.0387-.0175c-.2113-.0988-.4525-.2338-.4525-.51 0-.2938.2112-.5325.6187-.5325a.955.955 0 01.2388.0312c.0587.0163.1.0263.1337.0375.01.1.0288.2275.0575.4038l-.1137.0175c-.0575-.1713-.1475-.355-.3525-.355-.1325 0-.2263.1012-.2263.2262 0 .1288.1025.2038.2675.28l.0562.025c.24.1088.4438.2413.4438.545 0 .3175-.2562.5513-.6575.5513-.105 0-.2112-.02-.28-.0438-.0775-.0262-.1325-.0462-.1625-.0625-.0213-.1187-.055-.2587-.0863-.4325zm-3.3704 3.2283c0 .28.02.2975.2.3138v.1012h-.84v-.1012c.1788-.0163.2-.0338.2-.3138v-.855c0-.28-.0212-.2987-.2-.3137v-.1013h.84v.1013c-.18.015-.2.0337-.2.3137zm1.0255.0335c0 .135.005.1988.0513.2225.0425.0213.1012.0238.1812.0238.0838 0 .1963-.0075.25-.075.0413-.0488.085-.1188.1263-.2563l.1125.0175c-.0163.0988-.07.3688-.0938.4488h-1.285v-.1013c.1963-.0162.2175-.0337.2175-.3137v-.855c0-.28-.0212-.2975-.195-.3138v-.1012h.8425v.1012c-.1862.0163-.2075.0338-.2075.3138zm1.4465 0c0 .135.005.1988.0513.2225.0412.0213.1.0238.1812.0238.0838 0 .195-.0075.2488-.075.0412-.0488.0862-.1188.1262-.2563l.1125.0175c-.015.0988-.07.3688-.0937.4488h-1.285v-.1013c.1975-.0162.2175-.0337.2175-.3137v-.855c0-.28-.02-.2975-.1938-.3138v-.1012h.8413v.1012c-.1863.0163-.2063.0338-.2063.3138zm1.238.3992a535.183 535.183 0 01-.515-1.35c-.0862-.2225-.1387-.2363-.2625-.2513v-.1012h.8375v.1012l-.0887.01c-.0963.01-.0963.0338-.0663.125.0463.145.2513.655.3463.9088.08-.22.2462-.715.2875-.8363.055-.1587.04-.1875-.0775-.2l-.0775-.0075v-.1012h.6262v.1012c-.1475.0175-.1837.0313-.285.2675-.0162.035-.3312.805-.525 1.3338zm6.9595-7.921v.1012c-.1975.0188-.2075.0288-.2.3013l.0263.8675c.0075.2875.0137.295.2.3137v.1013h-.8113V32.52c.1938-.0187.2013-.0262.1988-.3137l-.0075-.9125h-.01l-.5013 1.2987h-.1387l-.4738-1.2075h-.005l-.0187.575c-.0075.2225-.005.3475.005.4275.01.0963.0662.12.235.1325v.1013h-.6388V32.52c.1238-.0112.1725-.0362.1888-.1325.0137-.08.0287-.2175.0412-.4537l.0275-.5225c.02-.3263-.0012-.355-.2062-.3738v-.1012h.6087l.4538 1.0262.3962-1.0262zm.8413 1.27c0 .28.0212.2975.2.3137v.1013h-.84V32.52c.1787-.0162.2-.0337.2-.3137v-.855c0-.28-.0213-.2988-.2-.3138v-.1012h.84v.1012c-.1788.015-.2.0338-.2.3138zm1.9278.4326h-.2225l-.9587-1.2238h-.005v.4775c0 .2713.01.415.0212.495.0125.0913.0825.1238.2538.1325v.1h-.6463v-.1c.1138-.0062.1825-.0412.195-.1325.01-.08.0213-.2237.0213-.495v-.4775c0-.1912-.005-.225-.0575-.2975-.0388-.0537-.1038-.0725-.1963-.08v-.1012h.5713l.8637 1.075h.0038v-.3463c0-.2725-.0088-.415-.0188-.495-.015-.0912-.0837-.125-.255-.1325v-.1012h.6613v.1012c-.13.005-.1975.0413-.21.1325-.01.08-.0213.2225-.0213.495zm.7549-.6815h.3313l-.1638-.495h-.0075zm.3275.5625l.0788-.0112c.0962-.0125.1012-.0388.0675-.1313l-.0938-.265h-.425l-.0775.2488c-.0337.1125-.0337.1375.085.1512l.075.0075v.1013h-.6037V32.52c.1337-.0187.1725-.0287.2575-.2462l.5187-1.34.1775-.0363.1775.49c.11.3088.2213.6138.32.8788.0838.225.13.2375.2575.2537v.1013h-.815zm-3.8716 2.7954c0 .28.02.2975.2375.3137v.1013h-.9063v-.1013c.2063-.0162.2275-.0337.2275-.3137v-1.135h-.0437c-.1738 0-.2438.0312-.285.0787-.03.0375-.0625.105-.095.2513h-.11c.01-.2188.0262-.3975.0312-.5288h.08c.0388.0588.0663.0638.135.0638h1.0338c.0687 0 .08-.015.1212-.0638h.0813c.0025.1088.015.3288.0287.52l-.115.0088c-.0375-.1563-.0662-.2238-.105-.2675-.045-.0475-.1312-.0625-.255-.0625h-.0612zm1.3562 0c0 .28.0213.2975.1988.3137v.1013h-.8388v-.1013c.1788-.0162.2-.0337.2-.3137v-.855c0-.28-.0212-.2975-.2-.3138v-.1012h.8388v.1012c-.1775.0163-.1988.0338-.1988.3138zm.8973-.4926c0 .47.1763.8112.43.8112.2238 0 .345-.215.345-.6837 0-.5213-.1862-.8088-.41-.8088-.1987 0-.365.2288-.365.6813m1.2575.045c0 .5537-.3787.9012-.8762.9012-.5225 0-.8625-.3812-.8625-.8575 0-.42.2787-.905.8987-.905.4738 0 .84.3475.84.8612m-2.7466 2.2873v.1012c-.1975.0175-.2075.0288-.2.3l.0262.8688c.0075.2875.0125.295.1988.3137v.1h-.81v-.1c.1937-.0187.2025-.0262.1987-.3137l-.0075-.9125h-.01l-.5 1.2987h-.14l-.4737-1.2075h-.0063l-.0175.575c-.0087.2225-.005.3463.005.4275.01.095.0663.1188.2363.1325v.1h-.6413v-.1c.125-.0112.175-.0375.19-.1325.0138-.0812.0288-.2175.0413-.4537l.0275-.5238c.0187-.3262 0-.355-.2063-.3725v-.1012h.6088l.4537 1.0262.3963-1.0262zm.4007.4145c0-.28-.0212-.2975-.1937-.3137v-.1013h1.2275c.0037.045.0162.2338.0287.4275l-.1137.0088c-.0263-.1275-.055-.2-.0963-.2413-.0412-.0437-.1275-.06-.2637-.06h-.045c-.0975 0-.1038 0-.1038.0913v.5h.13c.2225 0 .2313-.0163.2575-.2125h.1125v.6112h-.1125c-.0262-.2275-.035-.2437-.2575-.2437h-.13v.4225c0 .135.0063.1987.0525.2225.0413.0212.1013.0237.1813.0237.1037 0 .2187-.015.275-.0775.0437-.0462.0887-.1425.1275-.2675l.1125.0188c-.0113.1262-.0663.3912-.09.4612h-1.3188v-.1013c.1988-.0162.22-.0337.22-.3137zm1.7699.6064h.3325l-.1637-.495h-.0088zm.33.5625l.0775-.0113c.095-.0125.1013-.0387.0675-.1312l-.095-.265h-.4237l-.0788.2487c-.0337.1125-.0337.1375.0863.1513l.0737.0075v.1012h-.6012v-.1012c.13-.0175.1712-.0288.255-.2463l.5187-1.34.18-.0362.1738.49c.1125.3087.2237.6137.3225.8787.0837.225.13.2375.2562.2538v.1012h-.8125z" fill="#002147"/><path d="M38.494 59.6849a.6772.6772 0 01-.6775.6775.6775.6775 0 01-.6788-.6775c0-.3738.3038-.6775.6788-.6775a.678.678 0 01.6775.6775m6.872 1.1271a.6772.6772 0 01-.6775.6775.6775.6775 0 01-.6787-.6775c0-.3738.3037-.6763.6787-.6763.3738 0 .6775.3025.6775.6763m-3.8839-48.9712c0 .3737-.3037.6775-.6787.6775-.3738 0-.6763-.3038-.6763-.6775 0-.3738.3025-.6775.6763-.6775.375 0 .6787.3037.6787.6775m16.1259 6.3429c-.0162.3738-.3325.6638-.7062.6488-.3738-.0163-.6638-.3325-.6488-.7063a.6776.6776 0 01.7063-.6475c.3725.0163.6637.3313.6487.705M23.6225 47.2709c.26.375.3925.7762.3913 1.1912-.0013.4738-.1588.8575-1.0063 1.4438l-2.4462 1.7437-.4513-.6475s2.5063-1.785 2.5475-1.8137c.4325-.2988.6163-.5175.6175-.8588 0-.2175-.08-.4537-.2362-.68-.245-.3525-.56-.4662-.8363-.4662-.2525 0-.5225.1762-1.005.5125l-2.3012 1.5612-.4413-.6362 2.1888-1.4838c.61-.4275 1.095-.7212 1.5462-.72.6575.0013 1.1375.4288 1.4325.8538m-7.8189-4.7771l4.655-1.6325.2575.705-2.6637 3.2537 3.3662-1.3312.2513.6875-4.6025 1.7675-.2575-.705 2.6775-3.2588-3.4338 1.2013zm-.6966-3.7066l4.8725-.7225.1163.78-4.8725.7225zm-.1444-5.8749l.0188-.8176 4.8637 1.9763-.035.8113-4.9937 1.4887.005-.8188 4.05-1.135zm3.5705-9.5281c.2888-.525.495-.7237.8-.7225.1138 0 .2563.0275.3988.1063.185.1037.3262.2737.3787.4562a.6915.6915 0 01.0288.2125c-.0025.2925-.165.5875-.3363.895l-.1012.1825-1.3875-.7462zm.8763-1.4925c-.6963.0013-1.0188.4-1.4625 1.2025l-.5788 1.0363 4.34 2.355.3738-.6775-1.8025-.985.105-.1938c.3037-.55.4087-.6325 1.1825-.5675l1.405.125.4012-.7287-1.6187-.1375c-.3263-.03-.5825-.055-.79.0062-.07.02-.1525.0625-.2338.1188.0188-.0875.0525-.1738.0538-.2625 0-.1388-.0188-.2763-.0613-.4013-.0937-.29-.3-.5237-.6125-.6962-.2325-.1288-.465-.195-.7012-.1938m5.3911-6.9618l.6275-.4775 2.9888 3.915-.6275.4775zm2.705-1.9204l3.1875-1.6587.31.5975-1.24.6462 1.9638 3.7713-.6988.3637-1.965-3.7712-1.2462.65zm7.9493-3.1573l.8312-.2312-.6687 3.295.5412 1.8712-.7512.2163-.5288-1.8563-2.34-2.4412.81-.235 1.6825 1.7537zm15.0308 6.7343l2.5013-4.2437 2.3537 1.3862-.3425.5813-1.6812-.9913-.6913 1.175 1.5813.9313-.3338.5687-1.5812-.9325-1.1325 1.9225zm12.6569 10.9732l1.7937-2.1462.2788.85-1.335 1.5275 1.9837.4462.2625.8-2.7137-.6562-1.9275 2.31-.2738-.835 1.4538-1.6963-2.175-.4962-.265-.8075zM61.7348 32.4l4.91-.4.2225 2.7225-.6725.055-.1575-1.9438-1.3588.11.1488 1.83-.6563.0538-.15-1.83-2.2225.1812zm2.5596 8.1457c-.96 0-2.08-.5224-2.08-1.49 0-.35.1212-.8212.555-1.1362.2912-.2125.6712-.325 1.0975-.325.4887 0 1.37.1375 1.8325.775.16.22.24.475.2387.7462 0 .3775-.1537.8263-.5575 1.1188-.2862.2075-.6637.3112-1.0862.3112m-.3888-3.7537c-.5687 0-1.0925.1537-1.5062.4537-.7425.5388-.8775 1.3138-.8775 1.7663 0 1.665 1.5637 2.3312 2.7387 2.3312.565 0 1.0813-.1537 1.4888-.4487.83-.6.875-1.5038.875-1.7938 0-1.4537-1.335-2.3087-2.7188-2.3087M60.28 24.4074c-.4425 0-.8412-.185-1.1162-.62-.1413-.2213-.2088-.46-.21-.7013-.0038-.5575.35-1.1287.9962-1.5387.4275-.2713.8475-.405 1.2225-.4038.475 0 .8613.2088 1.1188.6163.1525.24.2225.495.2225.75 0 .5437-.345 1.0775-.9688 1.4725-.4375.2775-.8787.425-1.265.425m.7675-4.0138c-.4987 0-1.0287.1588-1.54.4825-.9462.6013-1.2912 1.4613-1.2912 2.0875 0 .4075.1112.8063.3437 1.1725.525.8288 1.3138 1.0313 1.8463 1.0288.5087-.0025 1.045-.1713 1.55-.4925.61-.3863 1.2887-1.1038 1.2887-2.0763 0-.4037-.115-.8012-.3487-1.1687-.4313-.68-1.1075-1.0338-1.8488-1.0338m-13.6931-5.7517c-.3575 0-.8725-.175-1.16-.7-.14-.255-.2013-.5638-.2013-.8838 0-.8825.5875-2.12 1.6613-2.12.6025 0 1.36.4488 1.36 1.5625 0 .71-.5013 2.1413-1.66 2.1413m.2525-4.3938c-1.0263 0-1.92.6913-2.2813 1.92-.0787.2725-.13.5425-.13.8038 0 .4925.0825.8825.285 1.25.455.8337 1.2888 1.1175 1.9225 1.1175.3588 0 .7038-.0813 1.02-.255.8313-.4538 1.38-1.5088 1.38-2.5188 0-.4375-.085-.8512-.28-1.2037-.4-.7275-1.14-1.1138-1.9162-1.1138M20.3224 28.1132l.6612.1875-.7462 2.705-4.7675-1.3062.8137-2.7375.6488.1825-.5988 1.9725 1.315.36.5063-1.7913.635.18-.505 1.7863 1.4862.4087zm1.2504-10.2918c.6837-.7675 1.3837-.7138 1.3837-.7138l.12.65s-.54.0175-.9625.49c-.1837.2063-.2762.4213-.2762.615 0 .16.0625.3.1875.4113.3412.3037.9237-.0338 1.2887-.18.2813-.1163.68-.2788 1.0788-.2788.2975 0 .605.085.8862.335.3275.2938.4925.6613.4925 1.0475 0 .4175-.1625.79-.49 1.1563-.6287.7037-1.4737.78-1.4737.78l-.1675-.6588c.4987-.115.875-.3062 1.1037-.5625.1788-.2012.2675-.4262.2675-.625 0-.185-.0775-.3587-.23-.495-.1225-.1087-.2725-.1487-.435-.1462-.3175 0-.6962.1825-1.0087.3125-.5988.2462-1.23.4462-1.795-.0588-.2875-.2562-.44-.58-.44-.9387 0-.3788.15-.7813.47-1.14m41.7614 28.2665c-.2212 0-.5987-.1275-.7412-.4938a.7517.7517 0 01-.05-.2837c.0025-.27.13-.5513.2625-.845l.0825-.19 1.4212.6387-.1575.38c-.265.6013-.4375.7925-.8175.7938m-2.9087-2.9213l1.8637.8425-.0937.21c-.2538.5725-.35.6663-1.1263.6688l-1.4112.0012-.335.76 1.625-.005c.33.0013.585.0013.7862-.0762a.8249.8249 0 00.2075-.1213c-.005.0413-.0187.0825-.0187.125-.0025.1813.0312.36.1.5175.2225.52.8275.775 1.2725.7738.7837 0 1.0837-.4688 1.465-1.3325.0137-.0313.4575-1.055.4575-1.055l-4.4788-2.0175zm-.8383 8.3687c-.3912 0-.7587-.1513-1.1412-.4563-.3875-.3087-.7988-.7912-.7988-1.4075 0-.4275.2325-.8362.59-1.2837l.3263-.4075 2.8137 2.245-.2162.2687c-.5213.655-.8788 1.0413-1.5738 1.0413m-1.755-3.7088c-.5112.64-.8987 1.2113-.8987 1.95 0 .6263.285 1.3413 1.005 1.9163.4775.38 1.0175.5875 1.575.5875.685 0 1.2337-.2063 2.0875-1.2763l.7787-.9775-3.85-3.0737z" fill="#fff"/><path d="M57.3739 57.1974c-4.585 1.6212-8.8638 1.51-12.5138.695.1188-1.63.7938-3.3725 1.8263-3.6963C54.725 51.7024 60.58 44.2074 60.58 35.3724c0-10.8663-8.8562-19.7063-19.7425-19.7063-10.8875 0-19.7437 8.84-19.7437 19.7063 0 6.045 2.8237 11.7875 7.5762 15.51-1.1287.4962-2.0912 1.2987-2.7875 2.2975-.36-.2463-.7075-.5-1.0287-.7638l-.18.18c.215.26.5487.6025.9487.9863-.585.9837-.9237 2.13-.9237 3.355 0 .1912.0125.38.0287.565-7.0725-5.155-11.2762-13.3488-11.2762-22.13 0-15.0988 12.2862-27.3838 27.3862-27.3838s27.385 12.285 27.385 27.3838c0 8.6487-3.9537 16.595-10.8487 21.825M41.4864 63.661c-3.7838 0-8.5063-1.2862-11.7513-3.2-.9825-.58-2.155-1.66-2.155-3.5025 0-.4987.0975-.9737.27-1.41 1.2113 1.0013 2.4638 1.94 3.2488 2.3688.18.1.285.1475.495.1475.505 0 .9125-.41.9125-.9163 0-.3862-.21-.7-.5563-.8512-.6712-.2938-2.075-.8738-3.5875-1.6575.6988-.9238 1.8013-1.5225 3.0413-1.5225.5675 0 1.1137.1212 1.6237.3612l1.0363.6038c3.2975 2.015 11.7812 7.18 22.0237 4.3412-3.8875 3.5088-8.6762 5.2375-14.6012 5.2375m3.2437 2.305c-1.04 0-1.8937.7363-1.8937 1.8663 0 1.1062.865 1.8662 1.8937 1.8662.1563 0 .3063-.0262.4513-.0637-.2175 1.565-2.04 3.3162-4.3913 4.1037-2.3325-.7812-4.1537-2.545-4.395-4.1025.1438.0375.2925.0625.4488.0625 1.1212 0 1.8937-.785 1.8937-1.8662 0-1.03-.81-1.8388-1.8537-1.8613.3187-.5825.625-1.2012.85-1.865 1.2925.2238 2.5675.3475 3.7525.3475.9725 0 1.9162-.0537 2.8375-.1462.1225.5337.3037 1.0912.5162 1.6675-.0362-.0013-.0725-.0088-.11-.0088M31.344 51.11c1.9475 0 3.7687.9987 4.8362 2.5987a18.8561 18.8561 0 01-2.7487-.9275l-.0038.005-.0287-.0162a4.6468 4.6468 0 00-1.995-.445c-1.5513 0-2.9238.76-3.77 1.9237a24.0876 24.0876 0 01-1.0638-.6237c1.05-1.5163 2.7963-2.515 4.7738-2.515m7.7075 3.885c-.2425.18-.4338.3937-.5725.63-.7138-.3475-1.6113-.7938-2.1975-1.1225.83.1837 1.915.4162 2.77.4925m5.9937-.3713c-.5662.8088-.9037 1.9338-1.0062 3.0725-1.7888-.4612-3.4125-1.0812-4.8288-1.7275.2688-.5212 1.04-.89 1.6275-.89 1.4438 0 2.85-.16 4.2075-.455m-4.2075-.3375c-1.21 0-2.4-.1162-3.5662-.3387-1.1263-2.2088-3.435-3.6288-5.9275-3.6288-.6125 0-1.2025.0888-1.7663.245-4.7912-3.56-7.6487-9.2225-7.6487-15.1912 0-10.4288 8.4825-18.9138 18.9087-18.9138 10.4263 0 18.9088 8.485 18.9088 18.9138 0 10.4287-8.4825 18.9137-18.9088 18.9137M31.344 62.765c-3.2038 0-5.81-2.6138-5.81-5.8275a5.796 5.796 0 01.7062-2.78c.2988.2712.6188.5525.95.8375-.2812.5962-.4437 1.26-.4437 1.9637 0 1.7463.8812 3.19 2.5487 4.175.9575.565 2.0425 1.075 3.19 1.5188a5.8693 5.8693 0 01-1.1412.1125m37.7137-27.3925c0-15.5363-12.66-28.175-28.22-28.175-15.56 0-28.22 12.6387-28.22 28.175 0 9.32 4.6025 18.0075 12.3138 23.2725.7587 2.8237 3.3425 4.9125 6.4125 4.9125.83 0 1.6362-.1575 2.4012-.4538a28.2161 28.2161 0 003.1638.8425c-.3.855-.7375 1.6675-1.155 2.3688 0 0 .01-.0025.0237-.005-.0075.005-.0162.0087-.0237.0137l.5875.5888c.15-.0825.32-.1325.5025-.1325.5812 0 1.0537.4712 1.0537 1.0525 0 .5812-.4725 1.0537-1.0537 1.0537-.5075 0-.9525-.325-1.1863-.6725 0 0-.1362.4738-.1362 1.0988-.005 2.0237 2.205 4.3362 5.2687 5.3112 3.0613-.9537 5.27-3.2825 5.27-5.3075 0-.6975-.1387-1.1025-.1387-1.1025-.235.2838-.6163.6725-1.1913.6725-.58 0-1.0537-.4725-1.0537-1.0537 0-.5813.4737-1.0525 1.0537-1.0525.2038 0 .3925.06.5538.1612l.57-.5712.0212.0062c-.3225-.7725-.5575-1.4812-.7175-2.1625 5.0738-.6825 9.355-2.83 12.7575-6.4087l-.0012-.0038C64.995 52.42 69.0576 44.255 69.0576 35.3724" fill="#fff"/></svg>
